<svg width="111" height="85" viewBox="0 0 111 85" fill="none" xmlns="http://www.w3.org/2000/svg">
<g clip-path="url(#clip0_1_391)">
<path d="M108.89 62.15C109.4 58.61 107.35 54.85 103.45 54.89H101.64C101.9 37.47 104.96 11.34 81.6799 8.01001C82.1999 4.40001 80.3199 0.400007 76.2399 0.440007C70.6299 2.21001 42.6199 -4.93999 45.3899 7.70001C26.5 6.95001 0.749949 5.60001 -5.12662e-05 31.3V62.15C-0.0700513 67.15 5.26995 68.05 9.19995 67.59C11.6799 84.42 35.5099 84.41 37.9799 67.59H63.6399C66.1199 84.42 89.9499 84.41 92.4199 67.59C97.0499 67.06 109.06 70.01 108.88 62.15H108.89ZM101.63 58.52C104.53 58.14 105.64 59.26 105.26 62.15C105.3 64.26 102.72 64 101.3 63.96C101.65 62.17 101.77 60.34 101.63 58.52ZM76.2199 4.08001C78.1699 4.05001 78.1199 6.32001 78.0299 7.71001H48.99V5.90001C47.59 2.17001 75.0999 4.85001 76.2099 4.08001H76.2199ZM23.5899 76.67C9.19995 76.21 9.19995 55.35 23.5899 54.89C37.9799 55.35 37.9799 76.21 23.5899 76.67ZM78.0399 76.67C63.6499 76.21 63.6499 55.35 78.0399 54.89C92.4299 55.35 92.4299 76.21 78.0399 76.67ZM92.4299 63.97C89.9499 47.14 66.1199 47.15 63.65 63.97H37.99C35.51 47.14 11.6799 47.15 9.20995 63.97C7.66995 63.79 3.57995 64.79 3.63995 62.16V53.09C15.8799 54.5 15.8099 48.04 3.63995 49.46C2.84995 33.78 2.24995 11.71 23.5999 11.35C69.7199 14.32 101.54 -4.37999 98.8099 51.72C88.1699 51.53 86.71 55.66 98.66 54.32C98.6099 55.01 98.5699 55.7 98.5199 56.41C97.4999 56.87 96.0299 57 95.5599 58.15C95.2499 59.71 97.2299 59.69 98.2699 59.4C98.1899 60.31 98.0999 61.22 97.9999 62.16C98.0699 64.79 93.9699 63.79 92.4299 63.97Z" fill="#FDF1DE"/>
<path d="M107.08 80.3001C105.13 80.2301 90.83 79.4601 98.01 83.9301C99.96 84.0001 114.26 84.7701 107.08 80.3001Z" fill="#FDF1DE"/>
<path d="M90.7399 80.3H1.81991C0.829907 80.32 0.0299072 81.12 0.0299072 82.11C0.0299072 83.1 0.829907 83.91 1.81991 83.92C1.48991 82.17 105.5 88.13 90.7499 80.29L90.7399 80.3Z" fill="#FDF1DE"/>
<path d="M63.52 14.9701C60.24 15.9901 41.21 12.0101 41.74 18.6001C42.99 21.8801 38.46 42.7701 45.37 42.1901C48.65 41.1701 67.68 45.1501 67.15 38.5601C65.9 35.2801 70.43 14.3901 63.52 14.9701ZM63.52 38.5601H45.37V18.6001H63.52V38.5601Z" fill="#FDF1DE"/>
<path d="M34.48 14.9699C22.49 13.7299 7.28998 16.1999 7.25998 31.2999C7.62998 34.3599 5.64998 42.3199 10.89 42.1899C14.19 40.8899 38.81 45.6199 38.11 38.5599C36.86 35.2599 41.39 14.3999 34.48 14.9699ZM34.48 38.5599H10.89V31.2999C10.7 18.4799 25 17.7999 34.48 18.5999V38.5599Z" fill="#FDF1DE"/>
<path d="M94.37 38.56C95.94 27.52 90.81 14.81 78.04 14.97C75.27 14.83 70.71 14.67 70.78 18.6C71.97 21.91 67.54 42.75 74.41 42.19C77.69 41.24 94.82 45.02 94.37 38.56ZM90.74 38.56H74.41V18.6C87.39 17.02 92.23 27.15 90.74 38.56Z" fill="#FDF1DE"/>
<path d="M49.5099 30.87C49.7499 30.8 49.9699 30.69 50.1799 30.55C50.2399 30.51 50.5799 30.09 50.4199 30.29C51.6499 28.69 53.0399 27.23 54.5699 25.93C55.3099 25.17 56.9599 24.15 56.1799 22.96C54.1999 20.35 45.3199 30.74 49.5199 30.87H49.5099Z" fill="#FDF1DE"/>
<path d="M53.92 29.4901C52.7 30.7001 51.55 31.9801 50.47 33.3201C49.74 34.1001 50.86 35.2301 51.65 34.5001C54.2 32.2801 57.24 30.2801 59.07 27.4201C59.26 27.0801 59.23 26.6701 58.99 26.3601C57.51 24.9001 55.01 28.6001 53.92 29.5001V29.4901Z" fill="#FDF1DE"/>
<path d="M58.6 31.45C57.55 31.32 56.77 32.27 56.09 32.94C55.54 33.72 53.85 34.44 54.53 35.55C55.46 36.55 56.5 34.94 57.34 34.51C58.26 33.94 60.32 32.27 58.6 31.45Z" fill="#FDF1DE"/>
<path d="M79.1 27.6402C80.18 27.6402 81.02 26.7002 81.87 26.1202C82.81 25.3502 84.14 24.6702 84.42 23.4002C84.6 22.6902 84.07 22.0002 83.34 21.9902C82.03 21.9902 81.11 23.1602 80.17 23.9302C79.41 24.7402 78.04 25.4902 78.11 26.7302C78.15 27.2502 78.58 27.6402 79.09 27.6402H79.1Z" fill="#FDF1DE"/>
<path d="M82.55 31.4199C83.43 30.7599 84.67 30.2999 84.99 29.1599C85.16 28.4999 84.67 27.8499 83.98 27.8399C82.87 27.7899 82.06 28.6999 81.19 29.2599C80.37 29.8299 79.59 30.4599 78.86 31.1399C78.49 31.5199 78.45 32.1199 78.78 32.5399C79.85 33.6899 81.51 31.9399 82.55 31.4199Z" fill="#FDF1DE"/>
<path d="M84.87 32.65C83 32.55 81.86 34.92 80.58 36.02C80.16 36.46 80.69 37.15 81.22 36.86C82.39 36.14 87.55 34.3 84.87 32.66V32.65Z" fill="#FDF1DE"/>
<path d="M20.73 63.7102C20.73 63.7102 20.7 63.7102 20.69 63.7002C20.63 63.7002 20.61 63.7002 20.73 63.7102Z" fill="#FDF1DE"/>
<path d="M23.98 59.98C23.61 59.98 23.23 60 22.86 60.05C22.8 59.62 22.38 59.24 21.95 59.56C16.78 62.54 15.89 69.44 22.08 71.68C23.75 72.22 25.57 72.01 27.06 71.1C28.56 70.19 29.58 68.67 29.86 66.94C30.14 65.21 29.65 63.44 28.52 62.11C27.39 60.77 25.73 59.99 23.98 59.98ZM25.8 63.8C25.85 63.83 25.87 63.85 25.8 63.8V63.8ZM24.36 63.19C24.43 63.2 24.5 63.22 24.36 63.19V63.19ZM26.81 66.64C25.13 71.47 18.35 68.13 20.53 63.65C21.81 63.91 22.99 62.96 24.29 63.18C25.1 63.26 25.84 63.69 26.32 64.35C26.8 65.01 26.98 65.85 26.8 66.64H26.81ZM26.9 66.27C26.9 66.06 26.91 66.19 26.9 66.27V66.27Z" fill="#FDF1DE"/>
<path d="M78.51 59.37C77.08 59.31 75.73 60.08 75.06 61.35C68.44 61.71 69.23 71.03 75.12 72.31C84.35 74.59 90.43 59.73 78.51 59.38V59.37ZM78.91 68.86C74.85 71.01 70.65 65.72 74.92 63.07C75.19 63.96 76.3 64.26 76.98 63.62C76.79 63.77 77.03 63.59 77.14 63.51C78.01 62.05 81.11 62.85 81.87 64.09C81.87 64.19 81.9 64.28 81.94 64.37C81.84 66.32 80.67 68.05 78.91 68.87V68.86Z" fill="#FDF1DE"/>
<path d="M77.2 63.46L77.14 63.51C77.14 63.51 77.14 63.53 77.2 63.46Z" fill="#FDF1DE"/>
<path d="M26.3201 22.8998C24.6501 22.4098 22.8501 22.6498 21.3501 23.5498C17.6401 25.1698 14.7501 28.2398 13.3401 32.0398C13.0701 32.6498 12.3301 34.7998 13.6301 34.5398C15.7901 31.2298 18.3401 27.6498 22.4301 26.1098C23.6401 25.5198 28.2801 24.9398 26.3201 22.9098V22.8998Z" fill="#FDF1DE"/>
<path d="M28.41 22.41C27.88 23.73 29.3 24.99 30.55 24.29C32.77 22.78 29.59 20.02 28.41 22.41Z" fill="#FDF1DE"/>
<path d="M58.74 53.1802C60.08 53.1302 61.41 52.8502 62.66 52.3602C63.23 52.0102 63.12 51.1602 62.48 50.9702C57.11 50.9902 51.78 52.6902 46.45 53.3702C45.77 53.4902 45.92 54.6702 46.62 54.5902C50.66 54.1202 54.71 53.6602 58.75 53.1902L58.74 53.1802Z" fill="#FDF1DE"/>
<path d="M60.4999 55.8602C58.0799 56.2202 55.6899 56.7602 53.3499 57.4702C52.6199 57.6902 52.7699 58.7702 53.5299 58.7902C55.9799 58.9302 58.4299 58.8802 60.8699 58.6402C64.5399 58.3302 64.0999 55.2602 60.4899 55.8602H60.4999Z" fill="#FDF1DE"/>
<path d="M104.45 51.2301C105.18 50.4901 109.48 41.8601 106.1 43.8701C105.46 44.6901 101.36 52.6101 104.45 51.2301Z" fill="#FDF1DE"/>
<path d="M106.57 50.5802C106.18 51.5402 104.63 52.9702 105.82 53.8502C106.27 54.1002 106.84 53.9502 107.11 53.5102C108.02 52.4202 108.71 51.1602 109.15 49.8002C109.4 47.5702 107.35 49.1802 106.58 50.5802H106.57Z" fill="#FDF1DE"/>
<path d="M109.73 52.5404C108.96 53.0904 108.33 53.8304 107.91 54.6804C107.6 55.2304 107.03 55.9804 107.69 56.5004C108.74 57.1904 109.34 55.5704 109.88 54.9204C110.44 54.3004 111.33 52.1204 109.72 52.5504L109.73 52.5404Z" fill="#FDF1DE"/>
</g>
<defs>
<clipPath id="clip0_1_391">
<rect width="110.65" height="84.47" fill="white"/>
</clipPath>
</defs>
</svg>
