<svg width="360" height="70" viewBox="0 0 360 70" fill="none" xmlns="http://www.w3.org/2000/svg">
<path d="M17.949 32.3698C17.54 32.9973 17.5062 33.3745 17.5062 34.6332V42.8689C17.5062 49.2184 13.7497 52.6135 8.66472 52.6135C0.266071 52.6097 -0.555781 46.9213 0.236048 45.0987C0.615076 44.2172 1.37313 43.4627 2.3526 43.2424C4.09012 42.8651 4.97201 43.5897 5.54243 44.7812C6.33051 46.447 6.23669 49.5583 8.03801 49.9019C10.1208 50.3127 10.755 48.1726 10.755 43.4889V34.6257C10.755 33.3708 10.725 32.9935 10.3122 32.3623C9.71173 31.5145 9.52409 31.4211 9.52409 31.0102C9.58789 30.506 9.90312 30.2856 10.6312 30.2856H17.6413C18.3693 30.2856 18.6845 30.506 18.7483 31.0102C18.7483 31.4174 18.5607 31.5145 17.9603 32.3623L17.949 32.3698Z" fill="#FDF1DE"/>
<path d="M38.285 44.6281C38.285 48.9009 34.5586 52.6098 29.316 52.6098C24.0734 52.6098 20.3469 48.9009 20.3469 44.6281C20.3469 40.3552 24.0734 36.6763 29.316 36.6763C34.5586 36.6763 38.285 40.3851 38.285 44.6281ZM32.2844 44.2172C31.8416 41.1994 30.1679 38.8762 28.5279 39.0966C26.888 39.3468 25.9085 42.0509 26.3476 45.0688C26.7604 48.1166 28.4641 50.4435 30.1041 50.1932C31.7478 49.9729 32.7235 47.2687 32.2844 44.221V44.2172Z" fill="#FDF1DE"/>
<path d="M59.3793 51.5752C59.3155 52.0794 59.0002 52.296 58.2759 52.296H51.8663C51.1382 52.296 50.793 52.0757 50.7592 51.5752C50.7292 51.1643 50.9168 51.071 51.5173 50.2231C51.9601 49.5956 51.9901 49.2184 51.9901 47.9597V44.3778C51.9901 42.2078 52.2415 39.4439 50.1287 39.4439C48.7064 39.4439 47.6031 40.5121 47.6031 42.4282V47.9597C47.6031 49.2184 47.6031 49.5919 48.046 50.2231C48.6464 51.071 48.834 51.1643 48.804 51.5752C48.774 52.0794 48.425 52.296 47.7007 52.296H41.291C40.5667 52.296 40.2478 52.0757 40.184 51.5752C40.184 51.1643 40.3753 51.071 40.972 50.2231C41.3811 49.5956 41.4149 49.2184 41.4149 47.9597V43.7167C41.4149 42.4618 41.3848 41.1097 40.972 40.5121C40.3716 39.6643 40.184 39.5709 40.184 39.16C40.2478 38.5624 40.6906 38.4392 41.4149 38.1553C42.582 37.7445 45.678 36.8668 45.678 36.8668C47.4155 36.3327 47.5731 37.0236 47.6031 38.1852C47.6031 38.3757 47.7945 38.4691 47.9184 38.3421C49.0254 37.4307 50.6016 36.6763 52.4029 36.6763C56.5384 36.6763 58.1484 39.4103 58.1484 41.8306V47.9597C58.1484 49.2184 58.1784 49.5919 58.5912 50.2231C59.1916 51.071 59.3793 51.1643 59.3793 51.5752Z" fill="#FDF1DE"/>
<path d="M77.6927 51.575C77.6627 52.0792 77.4075 52.2361 76.5856 52.2959C76.5856 52.2959 72.7653 52.6096 71.5982 52.6096C70.7764 52.6096 70.4612 52.2959 70.3673 51.6348C70.3673 51.4443 70.1797 51.4144 70.0521 51.5414C69.1364 52.3594 67.6841 52.6096 66.7985 52.6096C63.3872 52.6096 60.9554 50.6301 60.9554 47.5823C60.9554 43.0555 67.1437 41.2328 70.0183 43.8099C70.1459 43.9369 70.3636 43.8734 70.3636 43.683V42.9584C70.3636 41.0423 70.4574 39.313 69.3203 39.1225C67.7104 38.8387 67.6804 40.4746 67.0462 41.3561C66.1305 42.6147 64.0139 42.5176 63.2259 41.4494C61.7435 39.4363 64.4267 36.6724 69.1627 36.6724C73.4896 36.6724 76.4881 38.622 76.4881 43.2086V48.0156C76.4881 49.2108 76.5181 49.6179 76.9309 50.2155C77.5313 51.0633 77.719 51.1567 77.6889 51.5675L77.6927 51.575ZM70.3636 47.2984C70.1422 45.6027 69.1027 44.3441 68.0894 44.5009C67.0799 44.6279 66.4795 46.1369 66.7309 47.8027C66.9523 49.4984 67.9618 50.757 68.9713 50.6002C69.9808 50.4732 70.615 48.968 70.3598 47.2984H70.3636Z" fill="#FDF1DE"/>
<path d="M108.604 51.5754C108.574 52.0796 108.225 52.2962 107.501 52.2962H101.091C100.363 52.2962 100.048 52.0758 99.984 51.5754C99.984 51.1645 100.175 51.0711 100.772 50.2233C101.181 49.6257 101.215 49.2186 101.215 47.9599V44.378C101.215 42.208 101.466 39.4441 99.5111 39.4441C98.1226 39.4441 97.267 40.4824 97.2069 42.3051V47.9636C97.2069 49.2223 97.237 49.6294 97.6798 50.227C98.2802 51.0749 98.4679 51.1682 98.4378 51.5791C98.4078 52.0833 98.0588 52.2999 97.3308 52.2999H90.9211C90.1968 52.2999 89.8778 52.0796 89.814 51.5791C89.814 51.1682 89.9717 51.0749 90.6021 50.227C91.0149 49.6294 91.0449 49.2223 91.0449 47.9636V44.3817C91.0449 42.2117 91.3302 39.4478 89.3412 39.4478C87.9189 39.4478 87.067 40.516 87.037 42.4321V47.9636C87.037 49.2223 87.067 49.6294 87.4798 50.227C88.1103 51.0749 88.3017 51.1682 88.2679 51.5791C88.2041 52.0833 87.8889 52.2999 87.1608 52.2999H80.7512C80.0231 52.2999 79.6779 52.0796 79.6441 51.5791C79.6141 51.1682 79.8017 51.0749 80.4322 50.227C80.8412 49.6294 80.875 49.2223 80.875 47.9636V43.7207C80.875 42.4657 80.845 41.1136 80.4322 40.516C79.8017 39.6682 79.6103 39.5748 79.6441 39.164C79.7079 38.5664 80.1507 38.4431 80.875 38.1592C82.0121 37.7484 85.1081 36.8707 85.1081 36.8707C86.8456 36.3366 87.0333 37.0275 87.0333 38.1891C87.0333 38.3796 87.2547 38.473 87.3823 38.346C88.4555 37.4048 90.0017 36.6802 91.773 36.6802C94.141 36.6802 95.5632 37.5616 96.3851 38.7867C96.5127 39.0071 96.8579 39.037 97.0493 38.8502C98.0588 37.7484 99.7963 36.6802 101.755 36.6802C105.891 36.6802 107.407 39.4142 107.407 41.8345V47.9636C107.407 49.2223 107.407 49.6294 107.85 50.227C108.45 51.0749 108.638 51.1682 108.608 51.5791L108.604 51.5754Z" fill="#FDF1DE"/>
<path d="M126.948 51.575C126.918 52.0792 126.662 52.2361 125.841 52.2959C125.841 52.2959 122.02 52.6096 120.853 52.6096C120.031 52.6096 119.716 52.2959 119.622 51.6348C119.622 51.4443 119.435 51.4144 119.307 51.5414C118.391 52.3594 116.939 52.6096 116.053 52.6096C112.642 52.6096 110.21 50.6301 110.21 47.5823C110.21 43.0555 116.399 41.2328 119.273 43.8099C119.401 43.9369 119.618 43.8734 119.618 43.683V42.9584C119.618 41.0423 119.712 39.313 118.575 39.1225C116.965 38.8387 116.935 40.4746 116.301 41.3561C115.385 42.6147 113.269 42.5176 112.481 41.4494C110.998 39.4363 113.682 36.6724 118.418 36.6724C122.744 36.6724 125.743 38.622 125.743 43.2086V48.0156C125.743 49.2108 125.773 49.6179 126.186 50.2155C126.786 51.0633 126.974 51.1567 126.944 51.5675L126.948 51.575ZM119.622 47.2984C119.401 45.6027 118.361 44.3441 117.348 44.5009C116.339 44.6279 115.738 46.1369 115.99 47.8027C116.211 49.4984 117.22 50.757 118.23 50.6002C119.239 50.4732 119.874 48.968 119.618 47.2984H119.622Z" fill="#FDF1DE"/>
<path d="M143.685 47.2687C144.792 48.1502 142.578 52.6135 137.335 52.6135C133.357 52.6135 128.4 49.943 128.4 44.6916C128.4 40.1984 132.126 36.6763 136.735 36.6763C139.609 36.6763 141.062 37.4942 142.48 38.9098C143.523 39.9481 144.218 41.8343 142.829 43.1528C141.628 44.3143 138.851 44.1911 138.123 40.7661C137.838 39.414 137.144 38.9733 136.292 39.1003C134.903 39.287 133.954 41.2666 134.46 44.0641C134.967 47.0185 136.449 48.7777 138.851 48.7777C140.146 48.7777 141.283 48.0232 141.913 47.519C142.765 46.828 143.336 46.955 143.681 47.2687H143.685Z" fill="#FDF1DE"/>
<path d="M247.531 41.2967C247.531 47.5528 242.446 52.61 236.164 52.61C229.881 52.61 224.797 47.5491 224.797 41.2967C224.797 35.0443 229.881 29.9834 236.164 29.9834C242.446 29.9834 247.531 35.0443 247.531 41.2967ZM240.614 40.6356C239.89 35.8884 237.424 32.2767 234.869 32.6539C232.279 33.0648 230.985 37.2442 231.709 41.9877C232.437 46.7349 234.929 50.3466 237.518 49.9694C240.078 49.5623 241.339 45.3791 240.614 40.6356Z" fill="#FDF1DE"/>
<path d="M264.831 42.3648C264.264 43.9037 261.483 44.6581 260.061 42.335C259.209 40.9194 259.018 39.8213 258.196 39.8213C256.965 39.8213 257.153 41.2033 257.153 44.7889V47.9636C257.153 49.2223 257.183 49.5958 257.596 50.227C258.196 51.0749 258.384 51.1682 258.384 51.5791C258.32 52.0833 258.005 52.2999 257.277 52.2999H250.867C250.139 52.2999 249.794 52.0796 249.76 51.5791C249.73 51.1682 249.918 51.0749 250.518 50.227C250.961 49.5995 250.961 49.2223 250.961 47.9636V43.7207C250.961 42.4657 250.961 41.1136 250.518 40.516C249.918 39.6682 249.73 39.5748 249.76 39.164C249.824 38.5664 250.267 38.4431 250.961 38.1592C252.128 37.7484 255.224 36.8707 255.224 36.8707C256.961 36.3664 257.119 37.0275 257.149 38.1891C257.149 38.3796 257.37 38.473 257.498 38.346C258.571 37.4346 259.457 36.6802 261.255 36.6802C264.474 36.6802 265.611 40.389 264.823 42.3686L264.831 42.3648Z" fill="#FDF1DE"/>
<path d="M281.632 47.2687C282.739 48.1502 280.525 52.6135 275.282 52.6135C271.304 52.6135 266.347 49.943 266.347 44.6916C266.347 40.1984 270.073 36.6763 274.682 36.6763C277.556 36.6763 279.009 37.4942 280.427 38.9098C281.47 39.9481 282.165 41.8343 280.776 43.1528C279.575 44.3143 276.798 44.1911 276.07 40.7661C275.785 39.414 275.091 38.9733 274.239 39.1003C272.85 39.287 271.901 41.2666 272.408 44.0641C272.914 47.0185 274.397 48.7777 276.798 48.7777C278.093 48.7777 279.23 48.0232 279.861 47.519C280.712 46.828 281.283 46.955 281.628 47.2687H281.632Z" fill="#FDF1DE"/>
<path d="M302.85 51.5754C302.82 52.0796 302.471 52.2963 301.747 52.2963H295.337C294.609 52.2963 294.294 52.0759 294.23 51.5754C294.2 51.1646 294.387 51.0712 295.018 50.2233C295.427 49.6257 295.461 49.2186 295.461 47.9599V44.3781C295.461 42.208 295.712 39.4441 293.599 39.4441C292.177 39.4441 291.074 40.5123 291.074 42.4284V47.9599C291.074 49.2186 291.104 49.6257 291.517 50.2233C292.117 51.0712 292.305 51.1646 292.305 51.5754C292.241 52.0796 291.926 52.2963 291.198 52.2963H284.788C284.06 52.2963 283.715 52.0759 283.681 51.5754C283.651 51.1646 283.838 51.0712 284.439 50.2233C284.882 49.6257 284.882 49.2186 284.882 47.9599V36.9902C284.882 35.7315 284.882 34.4131 284.439 33.7856C283.838 32.9676 283.651 32.8743 283.681 32.4335C283.745 31.8658 284.154 31.7089 284.882 31.4587C286.049 31.0516 289.145 30.1402 289.145 30.1402C291.104 29.5762 291.07 30.5474 291.07 31.806V38.1854C291.07 38.3759 291.291 38.4693 291.419 38.3423C292.492 37.431 294.072 36.6765 295.87 36.6765C300.005 36.6765 301.615 39.4105 301.615 41.8308V47.9599C301.615 49.2186 301.645 49.6257 302.058 50.2233C302.688 51.0712 302.88 51.1646 302.846 51.5754H302.85Z" fill="#FDF1DE"/>
<path d="M321.193 51.575C321.163 52.0792 320.908 52.2361 320.086 52.2959C320.086 52.2959 316.266 52.6096 315.099 52.6096C314.277 52.6096 313.962 52.2959 313.868 51.6348C313.868 51.4443 313.68 51.4144 313.553 51.5414C312.637 52.3594 311.185 52.6096 310.299 52.6096C306.888 52.6096 304.456 50.6301 304.456 47.5823C304.456 43.0555 310.644 41.2328 313.519 43.8099C313.647 43.9369 313.864 43.8734 313.864 43.683V42.9584C313.864 41.0423 313.958 39.313 312.821 39.1225C311.211 38.8387 311.181 40.4746 310.547 41.3561C309.631 42.6147 307.515 42.5176 306.726 41.4494C305.244 39.4363 307.927 36.6724 312.663 36.6724C316.99 36.6724 319.989 38.622 319.989 43.2086V48.0156C319.989 49.2108 320.019 49.6179 320.431 50.2155C321.032 51.0633 321.22 51.1567 321.19 51.5675L321.193 51.575ZM313.868 47.2984C313.647 45.6027 312.607 44.3441 311.594 44.5009C310.584 44.6279 309.984 46.1369 310.235 47.8027C310.457 49.4984 311.466 50.757 312.476 50.6002C313.485 50.4732 314.119 48.968 313.864 47.2984H313.868Z" fill="#FDF1DE"/>
<path d="M338.212 42.3648C337.645 43.9037 334.865 44.6581 333.442 42.335C332.59 40.9194 332.399 39.8213 331.577 39.8213C330.346 39.8213 330.534 41.2033 330.534 44.7889V47.9636C330.534 49.2223 330.564 49.5958 330.977 50.227C331.577 51.0749 331.765 51.1682 331.765 51.5791C331.701 52.0833 331.386 52.2999 330.658 52.2999H324.248C323.52 52.2999 323.175 52.0796 323.141 51.5791C323.111 51.1682 323.299 51.0749 323.899 50.227C324.342 49.5995 324.342 49.2223 324.342 47.9636V43.7207C324.342 42.4657 324.342 41.1136 323.899 40.516C323.299 39.6682 323.111 39.5748 323.141 39.164C323.205 38.5664 323.648 38.4431 324.342 38.1592C325.509 37.7484 328.605 36.8707 328.605 36.8707C330.343 36.3664 330.5 37.0275 330.53 38.1891C330.53 38.3796 330.752 38.473 330.879 38.346C331.952 37.4346 332.838 36.6802 334.636 36.6802C337.856 36.6802 338.993 40.389 338.204 42.3686L338.212 42.3648Z" fill="#FDF1DE"/>
<path d="M358.548 50.2232C359.179 51.071 359.37 51.1644 359.336 51.5752C359.272 52.0795 358.957 52.2961 358.229 52.2961H353.366C352.48 52.2961 352.356 51.9824 352.322 51.1009C352.322 51.0075 352.195 50.944 352.131 51.0075C351.624 51.5117 350.206 52.6098 347.962 52.6098C342.94 52.6098 339.878 48.901 339.878 44.6281C339.878 40.3553 343.256 36.0488 348.468 36.7697C349.448 36.8967 350.615 37.3972 351.437 38.0881C351.624 38.245 351.943 38.3085 351.943 37.8678V36.0451C351.943 34.7864 351.913 34.4129 351.5 33.7817C350.87 32.9637 350.679 32.8703 350.712 32.4296C350.776 31.8619 351.219 31.705 351.943 31.4548C353.08 31.0477 356.206 30.1363 356.206 30.1363C358.132 29.5723 358.102 30.5434 358.102 31.8021V47.956C358.102 49.2147 358.132 49.6218 358.544 50.2194L358.548 50.2232ZM351.823 44.2173C351.414 41.1994 349.707 38.8762 348.067 39.0966C346.427 39.3468 345.447 42.051 345.886 45.0689C346.329 48.1166 348.033 50.4435 349.677 50.1933C351.317 49.9729 352.266 47.2688 351.823 44.221V44.2173Z" fill="#FDF1DE"/>
<path d="M193.96 40.7701C193.859 40.7253 193.78 40.7477 193.716 40.8336L190.095 45.2372C190.031 45.3119 190.02 45.394 190.057 45.4799C190.095 45.5658 190.163 45.6107 190.264 45.6107H193.758C193.859 45.6107 193.942 45.5733 194.009 45.4986C194.077 45.4239 194.11 45.338 194.11 45.2372V40.9793C194.11 40.8784 194.062 40.8075 193.96 40.7664V40.7701Z" fill="#FDF1DE"/>
<path d="M195.949 16.4062C192.756 16.4062 190.41 17.6014 188.342 18.6585C186.695 19.4988 185.273 20.2272 183.655 20.2272C182.038 20.2272 180.571 19.4951 178.878 18.651C176.777 17.5977 174.39 16.4062 171.207 16.4062C166.899 16.4062 154.598 20.6268 154.598 38.7752C154.598 52.9009 164.051 69.9998 175.084 69.9998C177.842 69.9998 179.685 69.01 181.167 68.2107C183.318 67.0529 183.839 67.0529 185.989 68.2107C187.472 69.0063 189.314 69.9998 192.073 69.9998C203.106 69.9998 212.563 52.9009 212.563 38.7752C212.563 20.6268 200.261 16.4062 195.953 16.4062H195.949ZM168.843 38.3456C168.457 38.7528 167.965 39.0067 167.368 39.1076C167.267 39.1337 167.192 39.1898 167.136 39.2831C167.079 39.3765 167.076 39.4736 167.128 39.5707C167.226 39.7948 167.365 40.0152 167.537 40.2318C167.71 40.4485 167.946 40.6613 168.247 40.8742C168.348 40.9489 168.408 41.0498 168.434 41.1805C168.46 41.3112 168.442 41.4308 168.378 41.5428L168.209 41.8416C168.134 41.9649 168.025 42.0396 167.882 42.0657C167.74 42.0919 167.612 42.0657 167.5 41.991C167.237 41.8043 166.926 41.5577 166.558 41.2477C166.19 40.9377 165.837 40.5717 165.503 40.1497C165.166 39.7276 164.88 39.2607 164.644 38.7453C164.407 38.2299 164.287 37.6771 164.287 37.0832C164.287 36.6388 164.37 36.2578 164.539 35.9478C164.708 35.6378 164.918 35.3875 165.173 35.1933C165.428 35.0028 165.706 34.8609 166.002 34.775C166.303 34.6891 166.588 34.6443 166.862 34.6443C167.211 34.6443 167.541 34.704 167.852 34.8198C168.164 34.9393 168.434 35.0999 168.663 35.3016C168.892 35.507 169.076 35.7461 169.215 36.0187C169.35 36.2914 169.421 36.5827 169.421 36.8927C169.421 37.4492 169.226 37.9348 168.843 38.3419V38.3456ZM185.363 49.0502C185.006 49.7187 184.485 50.2976 183.794 50.7869C183.104 51.2762 182.252 51.6647 181.235 51.9485C180.222 52.2324 179.054 52.3743 177.733 52.3743C176.412 52.3743 175.264 52.2324 174.251 51.9485C173.238 51.6647 172.382 51.2762 171.692 50.7869C171.001 50.2976 170.479 49.7187 170.123 49.0502C169.766 48.3816 169.59 47.657 169.59 46.8764C169.59 45.9464 169.868 45.106 170.419 44.3478C170.975 43.5933 171.737 42.9584 172.709 42.4504C172.772 42.4131 172.806 42.3533 172.81 42.2749C172.817 42.1927 172.787 42.1292 172.727 42.0806C172.191 41.6847 171.763 41.2216 171.44 40.695C171.117 40.1683 170.956 39.6006 170.956 38.9955C170.956 38.3905 171.106 37.7742 171.403 37.2289C171.703 36.6836 172.142 36.2055 172.72 35.7984C173.298 35.3913 174.011 35.0701 174.859 34.8422C175.707 34.6144 176.675 34.4986 177.771 34.4986C178.867 34.4986 179.839 34.6144 180.683 34.8422C181.531 35.0701 182.241 35.3913 182.811 35.7984C183.385 36.2055 183.82 36.6836 184.117 37.2289C184.417 37.7742 184.563 38.3643 184.563 38.9955C184.563 39.6268 184.402 40.187 184.079 40.7136C183.757 41.2403 183.321 41.7034 182.773 42.0993C182.71 42.1479 182.683 42.2151 182.691 42.2935C182.698 42.3757 182.736 42.4317 182.811 42.4691C183.783 42.977 184.537 43.6083 185.081 44.3665C185.622 45.1209 185.896 45.9576 185.896 46.8764C185.896 47.657 185.719 48.3816 185.363 49.0502ZM202.869 46.9884C202.869 47.2723 202.768 47.5151 202.562 47.713C202.355 47.911 202.111 48.0118 201.822 48.0118H200.197C200.021 48.0118 199.935 48.0977 199.935 48.2733V48.7551C199.999 49.1771 200.227 49.4722 200.625 49.6478H200.644C200.843 49.7337 201 49.8196 201.121 49.9092C201.237 49.9951 201.349 50.1109 201.447 50.2528C201.548 50.3948 201.597 50.5666 201.597 50.7645C201.597 51.1007 201.466 51.3696 201.203 51.5713C200.94 51.7767 200.595 51.9298 200.167 52.0344C199.74 52.139 199.248 52.21 198.7 52.2473C198.152 52.2847 197.593 52.3033 197.019 52.3033C196.445 52.3033 195.867 52.2847 195.319 52.2473C194.771 52.21 194.283 52.139 193.852 52.0344C193.424 51.9298 193.075 51.773 192.816 51.5713C192.553 51.3659 192.422 51.0969 192.422 50.7645C192.422 50.5927 192.459 50.4396 192.534 50.3089C192.609 50.1781 192.696 50.0698 192.797 49.9839C192.898 49.898 192.996 49.8308 193.097 49.7897C193.199 49.7449 193.27 49.7113 193.322 49.6888C193.634 49.5656 193.84 49.39 193.949 49.1697C194.054 48.9456 194.107 48.7476 194.107 48.5758V48.277C194.107 48.1052 194.02 48.0156 193.844 48.0156H187.157C186.871 48.0156 186.624 47.9147 186.417 47.7168C186.211 47.5188 186.11 47.276 186.11 46.9922V46.6374C186.11 46.402 186.192 46.1854 186.354 45.9875H186.335L194.793 35.7274C195.041 35.3689 195.379 35.0663 195.803 34.8161C196.227 34.5696 196.786 34.4426 197.484 34.4426C197.758 34.4426 198.04 34.4762 198.332 34.5434C198.625 34.6106 198.888 34.719 199.128 34.8684C199.364 35.0178 199.556 35.212 199.706 35.4548C199.856 35.6975 199.931 35.9926 199.931 36.3362V45.3338C199.931 45.4085 199.957 45.472 200.014 45.5281C200.07 45.5841 200.134 45.6102 200.209 45.6102H201.815C202.1 45.6102 202.348 45.7111 202.554 45.909C202.761 46.107 202.862 46.3498 202.862 46.6336V46.9884H202.869Z" fill="#FDF1DE"/>
<path d="M177.771 41.2627C178.293 41.2627 178.679 41.0423 178.931 40.6016C179.178 40.1609 179.306 39.6268 179.306 38.9955C179.306 38.3643 179.182 37.8302 178.931 37.397C178.683 36.9637 178.296 36.7471 177.771 36.7471C177.246 36.7471 176.863 36.9637 176.611 37.397C176.364 37.8302 176.236 38.3643 176.236 38.9955C176.236 39.6268 176.36 40.1646 176.611 40.6016C176.859 41.0423 177.246 41.2627 177.771 41.2627Z" fill="#FDF1DE"/>
<path d="M179.19 44.8599C179.028 44.606 178.826 44.4043 178.582 44.2549C178.338 44.1055 178.056 44.0308 177.733 44.0308C177.411 44.0308 177.126 44.1055 176.885 44.2549C176.641 44.4043 176.439 44.606 176.277 44.8599C176.116 45.1139 175.996 45.4164 175.913 45.7601C175.831 46.1074 175.793 46.4772 175.793 46.8768C175.793 47.2765 175.835 47.6462 175.913 47.9936C175.996 48.341 176.116 48.6398 176.277 48.8937C176.439 49.1477 176.641 49.3494 176.885 49.4988C177.129 49.6482 177.411 49.7229 177.733 49.7229C178.056 49.7229 178.341 49.6482 178.582 49.4988C178.826 49.3494 179.028 49.1477 179.19 48.8937C179.351 48.6398 179.471 48.341 179.554 47.9936C179.636 47.6462 179.674 47.2765 179.674 46.8768C179.674 46.4772 179.632 46.1074 179.554 45.7601C179.471 45.4127 179.351 45.1139 179.19 44.8599Z" fill="#FDF1DE"/>
<path d="M171.207 12.3054C175.369 12.3054 178.469 13.8517 180.728 14.9834C181.955 15.596 183.01 16.1226 183.655 16.1226C184.301 16.1226 185.284 15.6072 186.455 15.0096C186.883 14.793 187.37 14.5539 187.858 14.3186C189.821 10.0831 192.936 6.41908 196.947 3.75603C197.893 3.12855 198.152 1.85491 197.518 0.913693C196.887 -0.0275273 195.608 -0.285242 194.662 0.345973C189.851 3.53566 186.177 7.97658 183.918 13.101C181.043 6.60957 174.536 2.05287 166.959 2.05287C165.818 2.05287 164.899 2.97168 164.899 4.10338C164.899 7.31548 165.785 10.2923 167.245 12.9105C168.809 12.4847 170.187 12.3054 171.204 12.3054H171.207Z" fill="#FDF1DE"/>
</svg>
