<svg width="41" height="41" viewBox="0 0 41 41" fill="none" xmlns="http://www.w3.org/2000/svg">
<g clip-path="url(#clip0_1_276)">
<path d="M38.7 20.1C38.7 30.3725 30.3725 38.7 20.1 38.7C9.8275 38.7 1.5 30.3725 1.5 20.1C1.5 9.8275 9.8275 1.5 20.1 1.5C30.3725 1.5 38.7 9.8275 38.7 20.1Z" fill="#CF9A29" stroke="#FDF1DE" stroke-width="3"/>
<path d="M20.3101 16.0601C20.0901 16.2601 20.0801 16.6001 20.2801 16.8201L21.0601 17.6701C21.5601 18.1801 22.3101 17.4901 21.8501 16.9501L21.0701 16.1001C20.8701 15.8801 20.5301 15.8701 20.3101 16.0701V16.0601Z" fill="#FDF1DE"/>
<path d="M22.6299 18.6104C22.4099 18.8104 22.3999 19.1504 22.5999 19.3704L23.3799 20.2204C23.8799 20.7304 24.6299 20.0404 24.1699 19.5004L23.3899 18.6504C23.1899 18.4304 22.8499 18.4204 22.6299 18.6204V18.6104Z" fill="#FDF1DE"/>
<path d="M25.28 12.9702C25.5 12.7702 25.51 12.4302 25.31 12.2102L24.41 11.2202C23.29 10.0002 21.89 9.93018 20.67 11.0502L11.04 19.8402C9.82 20.9602 9.75 22.3602 10.87 23.5802L11.77 24.5702C11.97 24.7902 12.31 24.8002 12.53 24.6002C14.32 23.0902 16.58 25.5702 14.91 27.2102C14.69 27.4102 14.68 27.7502 14.88 27.9702L15.78 28.9602C16.9 30.1802 18.3 30.2502 19.52 29.1302L29.15 20.3402C30.37 19.2202 30.44 17.8202 29.32 16.6002L28.42 15.6102C28.22 15.3902 27.88 15.3802 27.66 15.5802C25.87 17.0902 23.61 14.6102 25.28 12.9702ZM27.95 16.7002L28.53 17.3302C29.25 18.1202 29.22 18.8302 28.43 19.5502L26.14 21.6402L25.73 21.1902C25.23 20.6802 24.48 21.3702 24.94 21.9102L25.35 22.3602L18.81 28.3302C18.02 29.0502 17.31 29.0202 16.59 28.2302L16.01 27.6002C17.83 25.0702 14.93 21.9002 12.25 23.4802L11.67 22.8502C10.95 22.0602 10.98 21.3502 11.77 20.6302L18.31 14.6602L18.72 15.1102C19.22 15.6202 19.97 14.9302 19.51 14.3902L19.1 13.9402L21.39 11.8502C22.18 11.1302 22.89 11.1602 23.61 11.9502L24.19 12.5802C22.37 15.1102 25.27 18.2802 27.95 16.7002Z" fill="#FDF1DE"/>
</g>
<defs>
<clipPath id="clip0_1_276">
<rect width="40.19" height="40.19" fill="white"/>
</clipPath>
</defs>
</svg>
